<svg width="113" height="34" viewBox="0 0 113 34" fill="none" xmlns="http://www.w3.org/2000/svg">
<rect width="113" height="34" rx="10" fill="#F0F1F5"/>
<path d="M25 17C25 21.4192 21.4184 25 17 25C12.5816 25 9 21.4192 9 17C9 12.5824 12.5816 9 17 9C21.4184 9 25 12.5824 25 17Z" fill="white"/>
<path opacity="0.25" d="M25 17C25 21.4192 21.4184 25 17 25C12.5816 25 9 21.4192 9 17C9 12.5824 12.5816 9 17 9C21.4184 9 25 12.5824 25 17Z" fill="#1A1926"/>
<path d="M19.8578 20.0514C19.753 20.0514 19.6474 20.0242 19.5506 19.9674L16.4098 18.0938C16.229 17.985 16.1178 17.789 16.1178 17.5778V13.5402C16.1178 13.209 16.3866 12.9402 16.7178 12.9402C17.049 12.9402 17.3178 13.209 17.3178 13.5402V17.237L20.1658 18.9354C20.4498 19.1058 20.5434 19.4738 20.3738 19.7586C20.261 19.9466 20.0618 20.0514 19.8578 20.0514Z" fill="#1A1926"/>
<path d="M35.17 22C35.002 22 34.8713 21.958 34.778 21.874C34.6847 21.7807 34.638 21.6547 34.638 21.496C34.638 21.3373 34.6847 21.2207 34.778 21.146C34.8713 21.062 35.002 21.02 35.17 21.02H36.99V13.082H37.592L35.562 14.426C35.4407 14.4913 35.324 14.5193 35.212 14.51C35.1093 14.5007 35.0207 14.4633 34.946 14.398C34.8807 14.3233 34.834 14.2393 34.806 14.146C34.778 14.0433 34.7827 13.9407 34.82 13.838C34.8573 13.726 34.9367 13.6327 35.058 13.558L36.99 12.284C37.1113 12.2093 37.228 12.1487 37.34 12.102C37.452 12.0553 37.564 12.032 37.676 12.032C37.8067 12.032 37.914 12.074 37.998 12.158C38.0913 12.2327 38.138 12.354 38.138 12.522V21.02H39.818C39.986 21.02 40.1167 21.062 40.21 21.146C40.3033 21.2207 40.35 21.3373 40.35 21.496C40.35 21.664 40.3033 21.79 40.21 21.874C40.1167 21.958 39.986 22 39.818 22H35.17ZM48.4199 22.098C48.2612 22.098 48.1212 22.056 47.9999 21.972C47.8786 21.888 47.7806 21.7527 47.7059 21.566L45.6199 15.896C45.5639 15.7373 45.5452 15.5973 45.5639 15.476C45.5919 15.3547 45.6526 15.2613 45.7459 15.196C45.8392 15.1307 45.9559 15.098 46.0959 15.098C46.2359 15.098 46.3479 15.1307 46.4319 15.196C46.5252 15.2613 46.5999 15.3827 46.6559 15.56L48.6159 21.16H48.2799L50.2959 15.56C50.3612 15.392 50.4406 15.2753 50.5339 15.21C50.6366 15.1353 50.7672 15.098 50.9259 15.098C51.0752 15.098 51.2012 15.1353 51.3039 15.21C51.4066 15.2847 51.4859 15.4013 51.5419 15.56L53.5159 21.16H53.1939L55.1819 15.532C55.2472 15.364 55.3266 15.252 55.4199 15.196C55.5132 15.1307 55.6252 15.098 55.7559 15.098C55.9052 15.098 56.0172 15.1353 56.0919 15.21C56.1759 15.2847 56.2226 15.3827 56.2319 15.504C56.2412 15.6253 56.2179 15.756 56.1619 15.896L54.0759 21.566C54.0106 21.7433 53.9126 21.8787 53.7819 21.972C53.6606 22.056 53.5206 22.098 53.3619 22.098C53.2032 22.098 53.0632 22.056 52.9419 21.972C52.8206 21.8787 52.7272 21.7433 52.6619 21.566L50.5899 15.882H51.1919L49.1339 21.566C49.0686 21.7433 48.9752 21.8787 48.8539 21.972C48.7326 22.056 48.5879 22.098 48.4199 22.098ZM60.8097 22.126C60.091 22.126 59.4704 21.986 58.9477 21.706C58.4344 21.4167 58.033 21.0107 57.7437 20.488C57.4637 19.9653 57.3237 19.34 57.3237 18.612C57.3237 17.9027 57.4637 17.2867 57.7437 16.764C58.0237 16.232 58.4064 15.8167 58.8917 15.518C59.3864 15.2193 59.9557 15.07 60.5997 15.07C61.057 15.07 61.4677 15.1493 61.8317 15.308C62.1957 15.4573 62.5037 15.6767 62.7557 15.966C63.017 16.2553 63.213 16.6053 63.3437 17.016C63.4837 17.4267 63.5537 17.8887 63.5537 18.402C63.5537 18.5513 63.5117 18.6633 63.4277 18.738C63.3437 18.8033 63.2224 18.836 63.0637 18.836H58.1917V18.094H62.7977L62.5737 18.276C62.5737 17.772 62.499 17.3473 62.3497 17.002C62.2004 16.6473 61.981 16.3767 61.6917 16.19C61.4117 16.0033 61.057 15.91 60.6277 15.91C60.1517 15.91 59.7457 16.022 59.4097 16.246C59.083 16.4607 58.8357 16.764 58.6677 17.156C58.4997 17.5387 58.4157 17.9867 58.4157 18.5V18.584C58.4157 19.4427 58.621 20.096 59.0317 20.544C59.4517 20.992 60.0444 21.216 60.8097 21.216C61.127 21.216 61.4397 21.174 61.7477 21.09C62.065 21.006 62.373 20.866 62.6717 20.67C62.8024 20.586 62.919 20.5487 63.0217 20.558C63.1337 20.558 63.2224 20.5907 63.2877 20.656C63.353 20.712 63.395 20.7867 63.4137 20.88C63.4417 20.964 63.4324 21.0573 63.3857 21.16C63.3484 21.2627 63.269 21.3513 63.1477 21.426C62.8397 21.65 62.4757 21.8227 62.0557 21.944C61.6357 22.0653 61.2204 22.126 60.8097 22.126ZM68.2609 22.126C67.5422 22.126 66.9215 21.986 66.3989 21.706C65.8855 21.4167 65.4842 21.0107 65.1949 20.488C64.9149 19.9653 64.7749 19.34 64.7749 18.612C64.7749 17.9027 64.9149 17.2867 65.1949 16.764C65.4749 16.232 65.8575 15.8167 66.3429 15.518C66.8375 15.2193 67.4069 15.07 68.0509 15.07C68.5082 15.07 68.9189 15.1493 69.2829 15.308C69.6469 15.4573 69.9549 15.6767 70.2069 15.966C70.4682 16.2553 70.6642 16.6053 70.7949 17.016C70.9349 17.4267 71.0049 17.8887 71.0049 18.402C71.0049 18.5513 70.9629 18.6633 70.8789 18.738C70.7949 18.8033 70.6735 18.836 70.5149 18.836H65.6429V18.094H70.2489L70.0249 18.276C70.0249 17.772 69.9502 17.3473 69.8009 17.002C69.6515 16.6473 69.4322 16.3767 69.1429 16.19C68.8629 16.0033 68.5082 15.91 68.0789 15.91C67.6029 15.91 67.1969 16.022 66.8609 16.246C66.5342 16.4607 66.2869 16.764 66.1189 17.156C65.9509 17.5387 65.8669 17.9867 65.8669 18.5V18.584C65.8669 19.4427 66.0722 20.096 66.4829 20.544C66.9029 20.992 67.4955 21.216 68.2609 21.216C68.5782 21.216 68.8909 21.174 69.1989 21.09C69.5162 21.006 69.8242 20.866 70.1229 20.67C70.2535 20.586 70.3702 20.5487 70.4729 20.558C70.5849 20.558 70.6735 20.5907 70.7389 20.656C70.8042 20.712 70.8462 20.7867 70.8649 20.88C70.8929 20.964 70.8835 21.0573 70.8369 21.16C70.7995 21.2627 70.7202 21.3513 70.5989 21.426C70.2909 21.65 69.9269 21.8227 69.5069 21.944C69.0869 22.0653 68.6715 22.126 68.2609 22.126ZM73.206 22.098C73.0194 22.098 72.8794 22.0467 72.786 21.944C72.6927 21.8413 72.646 21.6967 72.646 21.51V12.606C72.646 12.4193 72.6927 12.2793 72.786 12.186C72.8794 12.0833 73.0194 12.032 73.206 12.032C73.3834 12.032 73.5234 12.0833 73.626 12.186C73.7287 12.2793 73.78 12.4193 73.78 12.606V18.22H73.808L76.678 15.476C76.8087 15.3547 76.9207 15.2613 77.014 15.196C77.1167 15.1307 77.252 15.098 77.42 15.098C77.5694 15.098 77.686 15.14 77.77 15.224C77.854 15.2987 77.8914 15.3967 77.882 15.518C77.882 15.63 77.826 15.7513 77.714 15.882L74.662 18.78V18.164L77.98 21.286C78.1107 21.4167 78.176 21.5427 78.176 21.664C78.176 21.7853 78.1294 21.888 78.036 21.972C77.952 22.056 77.84 22.098 77.7 22.098C77.532 22.098 77.3967 22.0653 77.294 22C77.1914 21.9253 77.0654 21.818 76.916 21.678L73.808 18.808H73.78V21.51C73.78 21.902 73.5887 22.098 73.206 22.098ZM85.3274 22.126C84.6554 22.126 84.1421 21.9207 83.7874 21.51C83.4327 21.0993 83.2554 20.5113 83.2554 19.746V12.606C83.2554 12.4193 83.3021 12.2793 83.3954 12.186C83.4887 12.0833 83.6287 12.032 83.8154 12.032C83.9927 12.032 84.1327 12.0833 84.2354 12.186C84.3381 12.2793 84.3894 12.4193 84.3894 12.606V19.662C84.3894 20.166 84.4874 20.544 84.6834 20.796C84.8887 21.0387 85.1874 21.16 85.5794 21.16C85.6634 21.16 85.7381 21.1553 85.8034 21.146C85.8687 21.1367 85.9341 21.132 85.9994 21.132C86.1021 21.1227 86.1721 21.146 86.2094 21.202C86.2561 21.258 86.2794 21.37 86.2794 21.538C86.2794 21.706 86.2421 21.832 86.1674 21.916C86.0927 22 85.9714 22.056 85.8034 22.084C85.7287 22.0933 85.6494 22.1027 85.5654 22.112C85.4814 22.1213 85.4021 22.126 85.3274 22.126ZM90.3956 22.126C89.677 22.126 89.0563 21.986 88.5336 21.706C88.0203 21.4167 87.619 21.0107 87.3296 20.488C87.0496 19.9653 86.9096 19.34 86.9096 18.612C86.9096 17.9027 87.0496 17.2867 87.3296 16.764C87.6096 16.232 87.9923 15.8167 88.4776 15.518C88.9723 15.2193 89.5416 15.07 90.1856 15.07C90.643 15.07 91.0536 15.1493 91.4176 15.308C91.7816 15.4573 92.0896 15.6767 92.3416 15.966C92.603 16.2553 92.799 16.6053 92.9296 17.016C93.0696 17.4267 93.1396 17.8887 93.1396 18.402C93.1396 18.5513 93.0976 18.6633 93.0136 18.738C92.9296 18.8033 92.8083 18.836 92.6496 18.836H87.7776V18.094H92.3836L92.1596 18.276C92.1596 17.772 92.085 17.3473 91.9356 17.002C91.7863 16.6473 91.567 16.3767 91.2776 16.19C90.9976 16.0033 90.643 15.91 90.2136 15.91C89.7376 15.91 89.3316 16.022 88.9956 16.246C88.669 16.4607 88.4216 16.764 88.2536 17.156C88.0856 17.5387 88.0016 17.9867 88.0016 18.5V18.584C88.0016 19.4427 88.207 20.096 88.6176 20.544C89.0376 20.992 89.6303 21.216 90.3956 21.216C90.713 21.216 91.0256 21.174 91.3336 21.09C91.651 21.006 91.959 20.866 92.2576 20.67C92.3883 20.586 92.505 20.5487 92.6076 20.558C92.7196 20.558 92.8083 20.5907 92.8736 20.656C92.939 20.712 92.981 20.7867 92.9996 20.88C93.0276 20.964 93.0183 21.0573 92.9716 21.16C92.9343 21.2627 92.855 21.3513 92.7336 21.426C92.4256 21.65 92.0616 21.8227 91.6416 21.944C91.2216 22.0653 90.8063 22.126 90.3956 22.126ZM95.7048 22.098C95.5275 22.098 95.3875 22.0467 95.2848 21.944C95.1915 21.8413 95.1448 21.6967 95.1448 21.51V16.078H94.2488C94.0995 16.078 93.9781 16.0407 93.8848 15.966C93.8008 15.882 93.7588 15.77 93.7588 15.63C93.7588 15.49 93.8008 15.3827 93.8848 15.308C93.9781 15.2333 94.0995 15.196 94.2488 15.196H95.4528L95.1448 15.49V14.958C95.1448 14.0713 95.3595 13.3947 95.7888 12.928C96.2275 12.4613 96.8668 12.1907 97.7068 12.116L98.1128 12.074C98.2435 12.0647 98.3461 12.088 98.4208 12.144C98.5048 12.2 98.5561 12.27 98.5748 12.354C98.6028 12.438 98.6075 12.5267 98.5888 12.62C98.5701 12.704 98.5281 12.7787 98.4628 12.844C98.3975 12.9093 98.3181 12.9467 98.2248 12.956L97.9028 12.984C97.3335 13.0307 96.9181 13.2033 96.6568 13.502C96.4048 13.8007 96.2788 14.2393 96.2788 14.818V15.406L96.1108 15.196H97.7908C97.9495 15.196 98.0708 15.2333 98.1548 15.308C98.2388 15.3827 98.2808 15.49 98.2808 15.63C98.2808 15.77 98.2388 15.882 98.1548 15.966C98.0708 16.0407 97.9495 16.078 97.7908 16.078H96.2788V21.51C96.2788 21.902 96.0875 22.098 95.7048 22.098ZM101.845 22.126C101.313 22.126 100.865 22.0327 100.501 21.846C100.146 21.65 99.8801 21.37 99.7028 21.006C99.5254 20.6327 99.4368 20.18 99.4368 19.648V16.078H98.4988C98.3401 16.078 98.2188 16.0407 98.1348 15.966C98.0508 15.882 98.0088 15.77 98.0088 15.63C98.0088 15.49 98.0508 15.3827 98.1348 15.308C98.2188 15.2333 98.3401 15.196 98.4988 15.196H99.4368V13.586C99.4368 13.3993 99.4881 13.2593 99.5908 13.166C99.6934 13.0633 99.8334 13.012 100.011 13.012C100.188 13.012 100.323 13.0633 100.417 13.166C100.519 13.2593 100.571 13.3993 100.571 13.586V15.196H102.335C102.493 15.196 102.615 15.2333 102.699 15.308C102.783 15.3827 102.825 15.49 102.825 15.63C102.825 15.77 102.783 15.882 102.699 15.966C102.615 16.0407 102.493 16.078 102.335 16.078H100.571V19.536C100.571 20.068 100.683 20.474 100.907 20.754C101.131 21.0247 101.495 21.16 101.999 21.16C102.176 21.16 102.325 21.1413 102.447 21.104C102.577 21.0667 102.685 21.048 102.769 21.048C102.853 21.0387 102.923 21.0667 102.979 21.132C103.035 21.1973 103.063 21.3093 103.063 21.468C103.063 21.58 103.039 21.6827 102.993 21.776C102.955 21.8693 102.885 21.9347 102.783 21.972C102.671 22.0093 102.521 22.042 102.335 22.07C102.157 22.1073 101.994 22.126 101.845 22.126Z" fill="#1A1926"/>
</svg>
